<svg width="31" height="31" viewBox="0 0 31 31" fill="none" xmlns="http://www.w3.org/2000/svg">
<path fill-rule="evenodd" clip-rule="evenodd" d="M22.3333 0.404297H8.66667C3.94924 0.404297 0.125 4.13526 0.125 8.73763V22.071C0.125 26.6733 3.94924 30.4043 8.66667 30.4043H22.3333C27.0507 30.4043 30.875 26.6733 30.875 22.071V8.73763C30.875 4.13526 27.0507 0.404297 22.3333 0.404297ZM27.8854 22.071C27.876 25.0586 25.3957 27.4785 22.3333 27.4876H8.66667C5.60422 27.4785 3.12396 25.0586 3.11458 22.071V8.73763C3.12396 5.74988 5.60422 3.33011 8.66667 3.32096H22.3333C25.3957 3.33011 27.876 5.74988 27.8854 8.73763V22.071ZM23.6146 9.1543C24.5581 9.1543 25.3229 8.4081 25.3229 7.48763C25.3229 6.56716 24.5581 5.82096 23.6146 5.82096C22.6711 5.82096 21.9063 6.56716 21.9063 7.48763C21.9063 8.4081 22.6711 9.1543 23.6146 9.1543ZM15.5 7.9043C11.2543 7.9043 7.8125 11.2622 7.8125 15.4043C7.8125 19.5465 11.2543 22.9043 15.5 22.9043C19.7457 22.9043 23.1875 19.5465 23.1875 15.4043C23.1921 13.4138 22.3836 11.5036 20.9409 10.0961C19.4982 8.68861 17.5403 7.89986 15.5 7.9043ZM10.8021 15.4043C10.8021 17.9356 12.9054 19.9876 15.5 19.9876C18.0946 19.9876 20.1979 17.9356 20.1979 15.4043C20.1979 12.873 18.0946 10.821 15.5 10.821C12.9054 10.821 10.8021 12.873 10.8021 15.4043Z" fill="white"/>
</svg>
