<svg width="30" height="31" viewBox="0 0 30 31" fill="none" xmlns="http://www.w3.org/2000/svg">
<path fill-rule="evenodd" clip-rule="evenodd" d="M2.5 0.404297C1.11928 0.404297 0 1.52358 0 2.9043V27.9043C0 29.285 1.11928 30.4043 2.5 30.4043H27.5C28.8807 30.4043 30 29.285 30 27.9043V2.9043C30 1.52358 28.8807 0.404297 27.5 0.404297H2.5ZM9.20127 7.0755C9.21065 8.66925 8.01768 9.65128 6.60205 9.64425C5.26845 9.63721 4.10595 8.5755 4.11298 7.07785C4.12002 5.66925 5.2333 4.53721 6.6794 4.57003C8.14658 4.60285 9.21065 5.67863 9.20127 7.0755ZM15.4662 11.6739H11.2662H11.2638V25.9403H15.7028V25.6075C15.7028 24.9743 15.7023 24.341 15.7018 23.7075C15.7005 22.0178 15.699 20.3263 15.7077 18.6371C15.71 18.227 15.7287 17.8005 15.8342 17.409C16.2302 15.9465 17.5452 15.002 19.0123 15.2341C19.9545 15.3816 20.5778 15.9278 20.8403 16.8161C21.0022 17.3715 21.0748 17.9691 21.0818 18.5481C21.1008 20.2941 21.0982 22.0401 21.0955 23.7863C21.0945 24.4026 21.0935 25.0193 21.0935 25.6356V25.938H25.5467V25.5958C25.5467 24.8425 25.5463 24.0893 25.5458 23.3361C25.545 21.4536 25.544 19.5711 25.549 17.688C25.5513 16.8371 25.46 15.9981 25.2513 15.1755C24.9397 13.952 24.2952 12.9395 23.2475 12.2083C22.5045 11.6879 21.6888 11.3528 20.7772 11.3153C20.6733 11.311 20.5687 11.3053 20.4635 11.2996C19.9973 11.2744 19.5235 11.2488 19.0778 11.3387C17.8028 11.5942 16.6827 12.1778 15.8365 13.2066C15.7382 13.3246 15.642 13.4445 15.4985 13.6233L15.4662 13.6638V11.6739ZM4.4694 25.945H8.88737V11.6832H4.4694V25.945Z" fill="white"/>
</svg>
