<svg width="47" height="57" viewBox="0 0 47 57" fill="none" xmlns="http://www.w3.org/2000/svg">
<g filter="url(#filter0_d_307_1291)">
<path d="M25.8571 7H9C7.89543 7 7 7.89543 7 9V48C7 49.1046 7.89543 50 9 50H38C39.1046 50 40 49.1046 40 48V21.3333M25.8571 7V19.3333C25.8571 20.4379 26.7526 21.3333 27.8571 21.3333H40M25.8571 7H27.378C27.9131 7 28.4258 7.2144 28.8017 7.59528L39.4236 18.3603C39.7929 18.7346 40 19.2392 40 19.765V21.3333M16.4286 35.6667L21.1429 40.4444L30.5714 30.8889" stroke="white" stroke-width="2" stroke-linecap="round" stroke-linejoin="round"/>
</g>
<defs>
<filter id="filter0_d_307_1291" x="0.8" y="0.8" width="45.4" height="55.4" filterUnits="userSpaceOnUse" color-interpolation-filters="sRGB">
<feFlood flood-opacity="0" result="BackgroundImageFix"/>
<feColorMatrix in="SourceAlpha" type="matrix" values="0 0 0 0 0 0 0 0 0 0 0 0 0 0 0 0 0 0 127 0" result="hardAlpha"/>
<feOffset/>
<feGaussianBlur stdDeviation="2.6"/>
<feColorMatrix type="matrix" values="0 0 0 0 1 0 0 0 0 1 0 0 0 0 1 0 0 0 1 0"/>
<feBlend mode="normal" in2="BackgroundImageFix" result="effect1_dropShadow_307_1291"/>
<feBlend mode="normal" in="SourceGraphic" in2="effect1_dropShadow_307_1291" result="shape"/>
</filter>
</defs>
</svg>
