<svg width="130" height="32" viewBox="0 0 130 32" fill="none" xmlns="http://www.w3.org/2000/svg">
<path d="M26.0119 1.98507C25.2982 1.25252 24.3188 0.839355 23.296 0.839355H7.25435C6.61696 0.839355 6.10025 1.35606 6.10025 1.99346V7.26935H24.8956V22.7673H18.7129L15.5804 25.9204H6.10025V7.26935H1.1541C0.516709 7.26935 0 7.78606 0 8.42345V24.7991C0 25.5555 0.305791 26.2799 0.847887 26.8075L5.75064 31.5796C6.02767 31.8492 6.399 32.0001 6.7856 32.0001H20.6089C21.2463 32.0001 21.763 31.4834 21.763 30.846V25.8174H30.1715C30.7178 25.8174 31.1607 25.3745 31.1607 24.8282V8.40905C31.1607 7.6783 30.8753 6.97644 30.3654 6.45306L26.0119 1.98507Z" fill="white"/>
<path d="M125.407 6.93945H129.188V25.5551H126.808V12.889L127.099 10.2977L126.491 10.139L120.383 25.5551H117.685L111.577 10.139L110.969 10.2977L111.26 12.889V25.5551H108.88V6.93945H112.661L118.108 20.5045L118.77 23.1223H119.325L119.986 20.5045L125.407 6.93945Z" fill="white"/>
<path d="M96.6578 6.67529C101.973 6.67529 104.987 10.1393 104.987 16.2475C104.987 22.3558 101.973 25.8198 96.6578 25.8198C91.3693 25.8198 88.3284 22.3558 88.3284 16.2475C88.3284 10.1393 91.3693 6.67529 96.6578 6.67529ZM96.6578 23.7043C100.466 23.7043 102.555 21.0336 102.555 16.2475C102.555 11.4614 100.466 8.7907 96.6578 8.7907C92.8501 8.7907 90.7611 11.4614 90.7611 16.2475C90.7611 21.0336 92.8501 23.7043 96.6578 23.7043Z" fill="white"/>
<path d="M77.1554 9.05486H70.677V6.93945H86.0137V9.05486H79.5353V25.5551H77.1554V9.05486Z" fill="white"/>
<path d="M66.0525 20.5577C66.0525 15.6658 54.8937 19.262 54.8937 12.1225C54.8937 8.65849 57.2207 6.67529 61.3457 6.67529C65.4708 6.67529 67.8242 8.73782 68.115 12.5456H65.6823C65.4443 10.1128 63.9106 8.76426 61.3457 8.76426C58.675 8.76426 57.3264 9.82197 57.3264 11.9374C57.3264 16.8293 68.4852 13.2331 68.4852 20.3726C68.4852 23.8101 66.0525 25.8198 61.8217 25.8198C57.3529 25.8198 54.7879 23.6515 54.4971 19.6057H56.9033C57.1942 22.3558 58.8072 23.7308 61.8217 23.7308C64.5453 23.7308 66.0525 22.6202 66.0525 20.5577Z" fill="white"/>
<path d="M43.3599 6.67529C48.6749 6.67529 51.6894 10.1393 51.6894 16.2475C51.6894 22.3558 48.6749 25.8198 43.3599 25.8198C38.0714 25.8198 35.0305 22.3558 35.0305 16.2475C35.0305 10.1393 38.0714 6.67529 43.3599 6.67529ZM43.3599 23.7043C47.1677 23.7043 49.2567 21.0336 49.2567 16.2475C49.2567 11.4614 47.1677 8.7907 43.3599 8.7907C39.5522 8.7907 37.4632 11.4614 37.4632 16.2475C37.4632 21.0336 39.5522 23.7043 43.3599 23.7043Z" fill="white"/>
</svg>
