<svg width="66" height="66" viewBox="0 0 66 66" fill="none" xmlns="http://www.w3.org/2000/svg">
<path d="M55.0946 2.42667C53.5828 0.875093 51.5084 0 49.342 0H15.3651C14.0151 0 12.9206 1.09441 12.9206 2.44444V13.619H52.7302V46.4444H39.6349L33 53.123H12.9206V13.619H2.44444C1.09442 13.619 0 14.7135 0 16.0635V50.7479C0 52.3501 0.647682 53.8844 1.79587 55.0019L12.1801 65.1093C12.7669 65.6804 13.5534 66 14.3722 66H43.6508C45.0008 66 46.0952 64.9056 46.0952 63.5556V52.9048H63.9048C65.0619 52.9048 66 51.9667 66 50.8095V16.033C66 14.4852 65.3955 12.9987 64.3154 11.8901L55.0946 2.42667Z" fill="white"/>
</svg>
