<svg width="59" height="59" viewBox="0 0 59 59" fill="none" xmlns="http://www.w3.org/2000/svg">
<path d="M49.2512 2.1693C47.8998 0.78228 46.0453 0 44.1088 0H13.7355C12.5286 0 11.5503 0.978341 11.5503 2.18518V12.1746H47.1376V41.5185H35.4312L29.5 47.4888H11.5503V12.1746H2.18519C0.978341 12.1746 0 13.1529 0 14.3598V45.3655C0 46.7979 0.578988 48.1694 1.6054 49.1684L10.8883 58.2038C11.4128 58.7143 12.1159 59 12.8479 59H39.0212C40.228 59 41.2063 58.0217 41.2063 56.8148V47.2937H57.127C58.1614 47.2937 59 46.4551 59 45.4206V14.3325C59 12.9489 58.4596 11.62 57.4941 10.629L49.2512 2.1693Z" fill="white"/>
</svg>
