<svg width="48" height="48" viewBox="0 0 48 48" fill="none" xmlns="http://www.w3.org/2000/svg">
<g filter="url(#filter0_d_331_206)">
<path d="M24 41C33.3891 41 41 33.3891 41 24C41 14.6109 33.3891 7 24 7C14.6109 7 7 14.6109 7 24C7 33.3891 14.6109 41 24 41Z" stroke="white" stroke-width="2" stroke-linecap="round" stroke-linejoin="round"/>
</g>
<g filter="url(#filter1_d_331_206)">
<path d="M29.1001 18.0497C27.9356 16.8852 25.8854 16.076 24.0001 16.025M18.9001 29.0997C19.9949 30.5617 22.0332 31.3947 24.0001 31.4644M24.0001 16.025C21.7561 15.9638 19.7501 16.9787 19.7501 19.7497C19.7501 24.8497 29.1001 22.2997 29.1001 27.3997C29.1001 30.3084 26.6113 31.5579 24.0001 31.4644M24.0001 16.025V12.9497M24.0001 31.4644V35.0497" stroke="white" stroke-width="2" stroke-linecap="round" stroke-linejoin="round" shape-rendering="crispEdges"/>
</g>
<defs>
<filter id="filter0_d_331_206" x="0.9" y="0.9" width="46.2" height="46.2" filterUnits="userSpaceOnUse" color-interpolation-filters="sRGB">
<feFlood flood-opacity="0" result="BackgroundImageFix"/>
<feColorMatrix in="SourceAlpha" type="matrix" values="0 0 0 0 0 0 0 0 0 0 0 0 0 0 0 0 0 0 127 0" result="hardAlpha"/>
<feOffset/>
<feGaussianBlur stdDeviation="2.55"/>
<feColorMatrix type="matrix" values="0 0 0 0 1 0 0 0 0 1 0 0 0 0 1 0 0 0 1 0"/>
<feBlend mode="normal" in2="BackgroundImageFix" result="effect1_dropShadow_331_206"/>
<feBlend mode="normal" in="SourceGraphic" in2="effect1_dropShadow_331_206" result="shape"/>
</filter>
<filter id="filter1_d_331_206" x="13.1001" y="7.14971" width="21.8" height="33.7001" filterUnits="userSpaceOnUse" color-interpolation-filters="sRGB">
<feFlood flood-opacity="0" result="BackgroundImageFix"/>
<feColorMatrix in="SourceAlpha" type="matrix" values="0 0 0 0 0 0 0 0 0 0 0 0 0 0 0 0 0 0 127 0" result="hardAlpha"/>
<feOffset/>
<feGaussianBlur stdDeviation="2.4"/>
<feComposite in2="hardAlpha" operator="out"/>
<feColorMatrix type="matrix" values="0 0 0 0 1 0 0 0 0 1 0 0 0 0 1 0 0 0 0.25 0"/>
<feBlend mode="normal" in2="BackgroundImageFix" result="effect1_dropShadow_331_206"/>
<feBlend mode="normal" in="SourceGraphic" in2="effect1_dropShadow_331_206" result="shape"/>
</filter>
</defs>
</svg>
