<svg width="43" height="43" viewBox="0 0 43 43" fill="none" xmlns="http://www.w3.org/2000/svg">
<g filter="url(#filter0_d_331_209)">
<path d="M33.125 9.1H28.475V6.775C28.475 6.56946 28.3933 6.37233 28.248 6.22699C28.1027 6.08165 27.9055 6 27.7 6C27.4945 6 27.2973 6.08165 27.152 6.22699C27.0067 6.37233 26.925 6.56946 26.925 6.775V9.1H16.075V6.775C16.075 6.56946 15.9933 6.37233 15.848 6.22699C15.7027 6.08165 15.5055 6 15.3 6C15.0945 6 14.8973 6.08165 14.752 6.22699C14.6067 6.37233 14.525 6.56946 14.525 6.775V9.1H9.875C8.84766 9.10123 7.86276 9.50988 7.13632 10.2363C6.40988 10.9628 6.00123 11.9477 6 12.975V33.125C6.00123 34.1523 6.40988 35.1372 7.13632 35.8637C7.86276 36.5901 8.84766 36.9988 9.875 37H33.125C34.1525 36.9992 35.1376 36.5907 35.8641 35.8641C36.5907 35.1376 36.9992 34.1525 37 33.125V12.975C36.9992 11.9475 36.5907 10.9624 35.8641 10.2359C35.1376 9.50934 34.1525 9.10082 33.125 9.1ZM35.45 33.125C35.45 33.7416 35.205 34.333 34.769 34.769C34.333 35.205 33.7416 35.45 33.125 35.45H9.875C9.25837 35.45 8.667 35.205 8.23098 34.769C7.79495 34.333 7.55 33.7416 7.55 33.125V19.95H35.45V33.125ZM35.45 18.4H7.55V12.975C7.55 11.6916 8.5885 10.65 9.875 10.65H14.525V12.975C14.525 13.1805 14.6067 13.3777 14.752 13.523C14.8973 13.6683 15.0945 13.75 15.3 13.75C15.5055 13.75 15.7027 13.6683 15.848 13.523C15.9933 13.3777 16.075 13.1805 16.075 12.975V10.65H26.925V12.975C26.925 13.1805 27.0067 13.3777 27.152 13.523C27.2973 13.6683 27.4945 13.75 27.7 13.75C27.9055 13.75 28.1027 13.6683 28.248 13.523C28.3933 13.3777 28.475 13.1805 28.475 12.975V10.65H33.125C33.7416 10.65 34.333 10.895 34.769 11.331C35.205 11.767 35.45 12.3584 35.45 12.975V18.4Z" fill="white"/>
</g>
<defs>
<filter id="filter0_d_331_209" x="0.3" y="0.3" width="42.4" height="42.4" filterUnits="userSpaceOnUse" color-interpolation-filters="sRGB">
<feFlood flood-opacity="0" result="BackgroundImageFix"/>
<feColorMatrix in="SourceAlpha" type="matrix" values="0 0 0 0 0 0 0 0 0 0 0 0 0 0 0 0 0 0 127 0" result="hardAlpha"/>
<feOffset/>
<feGaussianBlur stdDeviation="2.85"/>
<feComposite in2="hardAlpha" operator="out"/>
<feColorMatrix type="matrix" values="0 0 0 0 1 0 0 0 0 1 0 0 0 0 1 0 0 0 1 0"/>
<feBlend mode="normal" in2="BackgroundImageFix" result="effect1_dropShadow_331_209"/>
<feBlend mode="normal" in="SourceGraphic" in2="effect1_dropShadow_331_209" result="shape"/>
</filter>
</defs>
</svg>
